<svg width="24" height="24" viewBox="0 0 24 24" fill="none" xmlns="http://www.w3.org/2000/svg">
<g id="IC_phone">
<path id="Vector" d="M22.0004 16.9196V19.9196C22.0016 20.1981 21.9445 20.4738 21.8329 20.729C21.7214 20.9841 21.5577 21.2132 21.3525 21.4015C21.1473 21.5897 20.905 21.7331 20.6412 21.8223C20.3774 21.9115 20.0978 21.9447 19.8204 21.9196C16.7433 21.5852 13.7874 20.5338 11.1904 18.8496C8.77425 17.3143 6.72576 15.2658 5.19042 12.8496C3.5004 10.2408 2.44866 7.2706 2.12042 4.17961C2.09543 3.90308 2.1283 3.62437 2.21692 3.36123C2.30555 3.0981 2.44799 2.8563 2.63519 2.65123C2.82238 2.44616 3.05023 2.28232 3.30421 2.17013C3.5582 2.05794 3.83276 1.99987 4.11042 1.99961H7.11042C7.59573 1.99483 8.06622 2.16669 8.43419 2.48314C8.80216 2.7996 9.0425 3.23906 9.11042 3.71961C9.23705 4.67967 9.47187 5.62234 9.81042 6.52961C9.94497 6.88753 9.97409 7.27652 9.89433 7.65049C9.81458 8.02445 9.62929 8.36772 9.36042 8.63961L8.09042 9.90961C9.51398 12.4132 11.5869 14.4861 14.0904 15.9096L15.3604 14.6396C15.6323 14.3707 15.9756 14.1855 16.3495 14.1057C16.7235 14.0259 17.1125 14.0551 17.4704 14.1896C18.3777 14.5282 19.3204 14.763 20.2804 14.8896C20.7662 14.9581 21.2098 15.2028 21.527 15.5771C21.8441 15.9514 22.0126 16.4292 22.0004 16.9196Z" fill="#3DB9FF"/>
</g>
</svg>
