<svg width="69" height="64" viewBox="0 0 69 64" fill="none" xmlns="http://www.w3.org/2000/svg">
<path d="M10.2799 47H3.80556C2.80528 47 2 46.1972 2 45.2V3.8C2 2.8028 2.80528 2 3.80556 2H65.1944C66.1947 2 67 2.8028 67 3.8V45.2C67 46.1972 66.1947 47 65.1944 47H38.4662" stroke="#3DB9FF" stroke-width="3" stroke-linecap="round" stroke-linejoin="round"/>
<path d="M24.5 37C30.299 37 35 32.299 35 26.5C35 20.701 30.299 16 24.5 16C18.701 16 14 20.701 14 26.5C14 32.299 18.701 37 24.5 37Z" stroke="#3DB9FF" stroke-width="3" stroke-linecap="round" stroke-linejoin="round"/>
<path d="M7.03886 62H41.9445C43.6471 31.9771 5.61795 30.6962 7.03886 62Z" stroke="#3DB9FF" stroke-width="3" stroke-linecap="round" stroke-linejoin="round"/>
<path d="M24 2V16" stroke="#3DB9FF" stroke-width="3" stroke-linecap="round" stroke-linejoin="round"/>
<path d="M44 2V47" stroke="#3DB9FF" stroke-width="3" stroke-linecap="round" stroke-linejoin="round"/>
<path d="M67 25H35" stroke="#3DB9FF" stroke-width="3" stroke-linecap="round" stroke-linejoin="round"/>
<path d="M2 25H14" stroke="#3DB9FF" stroke-width="3" stroke-linecap="round" stroke-linejoin="round"/>
<path d="M44 36H67" stroke="#3DB9FF" stroke-width="3" stroke-linecap="round" stroke-linejoin="round"/>
</svg>
