<svg width="64" height="64" viewBox="0 0 64 64" fill="none" xmlns="http://www.w3.org/2000/svg">
<rect width="64" height="64" rx="20" fill="#3DB9FF"/>
<path d="M45.3534 19.3616L41.3741 15.5514C39.91 14.1495 37.5262 14.1495 36.0622 15.5514L30.7502 20.6377L34.7295 24.4479L38.7088 20.6377L45.3534 27C46.4081 25.9855 47.0002 24.6123 47.0002 23.1808C47.0002 21.7493 46.4081 20.3761 45.3534 19.3616Z" fill="white"/>
<path d="M20.2696 34.9822C21.2955 36.0059 22.9472 36.0059 23.9557 34.9822L28.2502 30.6961L24.5642 27L20.2696 31.2861C19.2438 32.3099 19.2438 33.9584 20.2696 34.9822Z" fill="white"/>
<path d="M37.5404 24.6679L42.7145 29.6822C42.8843 29.8462 43.0191 30.041 43.111 30.2553C43.2029 30.4696 43.2502 30.6993 43.2502 30.9313C43.2502 31.1633 43.2029 31.393 43.111 31.6074C43.0191 31.8217 42.8843 32.0164 42.7145 32.1805C42.5446 32.3445 42.3429 32.4746 42.121 32.5634C41.899 32.6522 41.6612 32.6979 41.4209 32.6979C41.1807 32.6979 40.9428 32.6522 40.7209 32.5634C40.499 32.4746 40.2973 32.3445 40.1274 32.1805L23.266 48.4635C21.8348 49.8455 19.5047 49.8455 18.0736 48.4635C16.6425 47.0815 16.6425 44.8313 18.0736 43.4492L31.0454 30.9225L25.2108 25.2881C24.9534 25.0425 24.749 24.7501 24.6096 24.4277C24.4701 24.1053 24.3983 23.7594 24.3983 23.41C24.3983 23.0606 24.4701 22.7146 24.6096 22.3922C24.749 22.0698 24.9534 21.7774 25.2108 21.5318C26.275 20.4865 28.018 20.4865 29.1005 21.5495L34.9351 27.1839L37.5404 24.6679Z" fill="white"/>
<circle cx="32" cy="35" r="23" fill="#3DB9FF"/>
<path d="M32.0012 17.0893C31.7431 17.0792 31.4373 17.0742 31.1341 17.0742C16.726 17.0742 5.04724 28.7873 5.04724 43.2376C5.04724 43.5442 5.05225 43.8484 5.06228 44.1525V44.1073C5.06228 45.1479 5.90435 45.9924 6.94191 45.9924C7.97947 45.9924 8.82155 45.1479 8.82155 44.1073C8.80651 43.8132 8.79899 43.4663 8.79899 43.1195C8.79899 30.8132 18.746 20.837 31.0163 20.837C31.3621 20.837 31.708 20.8445 32.0513 20.8596L32.0037 20.8571C32.114 20.8546 32.2443 20.8546 32.3721 20.8546C38.3519 20.8546 43.8204 23.0539 48.0157 26.691L47.9856 26.6659C52.4316 30.7956 55.2034 36.6823 55.2034 43.2175C55.2034 43.5317 55.1959 43.8408 55.1834 44.1525L55.1859 44.1073C55.1859 45.1479 56.028 45.9924 57.0655 45.9924C58.1031 45.9924 58.9452 45.1479 58.9452 44.1073C58.9552 43.8484 58.9602 43.5417 58.9602 43.2376C58.9602 28.7873 47.2814 17.0742 32.8734 17.0742C32.5676 17.0742 32.2644 17.0792 31.9611 17.0893H32.0062H32.0012ZM32.0012 27.1434C31.8383 27.1384 31.6478 27.1334 31.4549 27.1334C22.4076 27.1334 15.0745 34.488 15.0745 43.5618C15.0745 43.7554 15.077 43.9464 15.0845 44.1374V44.1098C15.0845 45.1504 15.9266 45.9949 16.9641 45.9949C18.0017 45.9949 18.8438 45.1504 18.8438 44.1098C18.8362 43.9414 18.8312 43.7453 18.8312 43.5493C18.8312 36.5642 24.4777 30.9012 31.4423 30.9012C31.6403 30.9012 31.8358 30.9062 32.0288 30.9137H32.0012C32.0689 30.9137 32.1466 30.9112 32.2243 30.9112C35.6201 30.9112 38.7253 32.1579 41.1062 34.2215L41.0886 34.2065C43.5998 36.5491 45.1662 39.8795 45.1662 43.5794C45.1662 43.7654 45.1612 43.9514 45.1536 44.1349V44.1098C45.1536 45.1504 45.9957 45.9949 47.0333 45.9949C48.0708 45.9949 48.9129 45.1504 48.9129 44.1098C48.9179 43.9464 48.923 43.7554 48.923 43.5644C48.923 34.4905 41.5899 27.1359 32.5425 27.1359C32.3521 27.1359 32.1616 27.1384 31.9711 27.1459H31.9987L32.0012 27.1434ZM25.1092 44.1098C25.1092 45.1504 25.9513 45.9949 26.9889 45.9949C28.0264 45.9949 28.8685 45.1504 28.8685 44.1098C28.8685 42.3755 30.2719 40.9679 32.0012 40.9679C33.7305 40.9679 35.1339 42.3755 35.1339 44.1098C35.1339 45.1504 35.976 45.9949 37.0136 45.9949C38.0511 45.9949 38.8932 45.1504 38.8932 44.1098C38.8331 40.3395 35.7705 37.3057 32.0012 37.3057C28.2319 37.3057 25.1694 40.3395 25.1092 44.1048V44.1098Z" fill="white"/>
</svg>
