<svg width="72" height="63" viewBox="0 0 72 63" fill="none" xmlns="http://www.w3.org/2000/svg">
<path d="M46.8881 19.9286L27.7973 0.838641C27.2601 0.301587 26.532 0 25.7726 0H2.86368C1.28209 0 0 1.28209 0 2.86354V60.1359C0 61.7174 1.28209 62.9996 2.86368 62.9996H44.8635C46.4449 62.9996 47.7272 61.7175 47.7272 60.1359V21.9535C47.727 21.1939 47.4253 20.4656 46.8881 19.9286ZM28.6362 9.77675L37.9499 19.09H28.6362V9.77675ZM41.9998 57.2724H5.72722V5.72722H22.9089V21.9536C22.9089 23.5351 24.191 24.8173 25.7726 24.8173H41.9997V57.2724H41.9998Z" fill="#3DB9FF"/>
<path d="M33.4089 43.9092H14.3181C12.7367 43.9092 11.4545 45.1913 11.4545 46.7729C11.4545 48.3544 12.7366 49.6365 14.3181 49.6365H33.4089C34.9904 49.6365 36.2726 48.3544 36.2726 46.7729C36.2725 45.1911 34.9904 43.9092 33.4089 43.9092Z" fill="#3DB9FF"/>
<path d="M33.4089 32.4551H14.3181C12.7367 32.4551 11.4545 33.7372 11.4545 35.3188C11.4545 36.9002 12.7366 38.1824 14.3181 38.1824H33.4089C34.9904 38.1824 36.2726 36.9003 36.2726 35.3188C36.2725 33.737 34.9904 32.4551 33.4089 32.4551Z" fill="#3DB9FF"/>
<path d="M70.5825 0.83878C70.0455 0.301727 69.3172 0 68.5576 0H56.318C55.5583 0 54.83 0.301866 54.2931 0.83878C53.7561 1.37569 53.4544 2.10427 53.4544 2.86368L53.4548 54.0166C53.4548 54.7762 53.7564 55.5046 54.2937 56.0415L60.4134 62.1611C60.9726 62.7203 61.7055 63 62.4381 63C63.1709 63 63.9039 62.7205 64.4629 62.1611L70.5825 56.0415C71.1196 55.5044 71.4213 54.7761 71.4213 54.0166L71.4217 2.86368C71.4212 2.10427 71.1196 1.37569 70.5825 0.83878ZM65.6935 52.8304L62.4376 56.0864L59.1816 52.8304L59.1815 5.72736H65.6939L65.6935 52.8304Z" fill="#3DB9FF"/>
</svg>
