<svg width="60" height="69" viewBox="0 0 60 69" fill="none" xmlns="http://www.w3.org/2000/svg">
<circle cx="29.5881" cy="26.1125" r="14.5" fill="#3DB9FF"/>
<path fill-rule="evenodd" clip-rule="evenodd" d="M24.631 1.94191C27.1448 -0.647306 31.3011 -0.647302 33.8148 1.94191L35.2493 3.41941C36.4662 4.6729 38.1427 5.3744 39.8898 5.36113L41.9599 5.34541C45.5319 5.31827 48.4347 8.22043 48.4083 11.7924L48.3914 14.0846C48.3787 15.7987 49.0543 17.4463 50.2666 18.6582L51.8949 20.2859C54.3954 22.7854 54.3954 26.839 51.8949 29.3385L50.2666 30.9663C49.0543 32.1781 48.3787 33.8257 48.3914 35.5398L48.4083 37.832C48.4347 41.404 45.5319 44.3061 41.9599 44.279L39.8898 44.2633C38.1427 44.25 36.4662 44.9515 35.2493 46.205L33.8148 47.6825C31.301 50.2717 27.1448 50.2717 24.631 47.6825L23.1966 46.205C21.9796 44.9515 20.3031 44.25 18.5561 44.2633L16.486 44.279C12.914 44.3061 10.0112 41.404 10.0376 37.832L10.0545 35.5398C10.0671 33.8257 9.3916 32.1781 8.17928 30.9663L6.55095 29.3385C4.05047 26.839 4.05047 22.7854 6.55095 20.2859L8.17928 18.6582C9.39161 17.4463 10.0671 15.7987 10.0545 14.0846L10.0376 11.7924C10.0112 8.22043 12.914 5.31827 16.486 5.34541L18.5561 5.36113C20.3031 5.3744 21.9796 4.6729 23.1966 3.41941L24.631 1.94191ZM42.3843 21.5L42.3669 21.4826L40.4392 19.5746C40.3263 19.462 40.1922 19.373 40.0447 19.3125C39.8971 19.2521 39.7391 19.2215 39.5797 19.2225C39.3214 19.2227 39.0697 19.3042 38.8603 19.4553C38.8603 19.4382 38.862 19.4213 38.8635 19.4055L38.8653 19.3867L38.8655 19.3835C38.8909 19.0179 38.929 18.4673 38.5728 17.9681C38.1481 17.3957 37.6819 16.8553 37.1778 16.3514L37.1753 16.3487L37.1733 16.347C36.4241 15.609 34.7934 14.219 32.2953 13.2003C31.3479 12.8115 30.3336 12.6118 29.3096 12.6125C27.5343 12.6125 26.1843 13.4135 25.6674 13.8883C25.3747 14.1678 25.1077 14.4732 24.8698 14.8006C24.7561 14.9576 24.6961 15.147 24.6987 15.3407C24.7013 15.5345 24.7663 15.7222 24.8842 15.8761C25.002 16.0299 25.1664 16.1415 25.3528 16.1945C25.5392 16.2474 25.7377 16.2387 25.9188 16.1698C26.0766 16.1108 26.2377 16.0614 26.4014 16.0218C26.7424 15.9497 27.092 15.9279 27.4393 15.9571C28.1812 16.0184 29.0587 16.3869 29.4468 16.6934C30.1049 17.2228 30.4216 17.936 30.4739 19.0048C30.4841 19.2196 30.0397 20.0251 29.3489 20.9443C29.2174 21.1177 29.1531 21.333 29.1681 21.5502C29.1831 21.7674 29.2763 21.9718 29.4305 22.1255L31.3661 24.0611C31.5287 24.2241 31.7477 24.3186 31.9779 24.3251C32.2081 24.3316 32.432 24.2496 32.6036 24.0959C33.1509 23.6071 33.9845 22.8703 34.2759 22.6897C34.7084 22.4236 35.0178 22.3724 35.1028 22.3634C35.3232 22.3418 35.5449 22.3886 35.7378 22.4973C35.7388 22.507 35.7377 22.5167 35.7347 22.5259C35.7328 22.5317 35.7301 22.5373 35.7268 22.5424C35.7249 22.5454 35.7227 22.5481 35.7204 22.5508L35.618 22.6481L35.6011 22.6638C35.488 22.7765 35.3983 22.9105 35.3372 23.058C35.2761 23.2055 35.2447 23.3637 35.245 23.5233C35.2453 23.683 35.2771 23.8411 35.3387 23.9884C35.4003 24.1357 35.4905 24.2694 35.6039 24.3817L37.5311 26.2891C37.644 26.4016 37.7781 26.4906 37.9256 26.5509C38.0732 26.6113 38.2312 26.6418 38.3906 26.6407C38.7106 26.6412 39.0181 26.5159 39.2467 26.292L42.3686 23.2083C42.3793 23.1976 42.3899 23.1864 42.4001 23.1751C42.6095 22.9456 42.7243 22.6452 42.7214 22.3345C42.7185 22.0237 42.598 21.7256 42.3843 21.5Z" fill="#3DB9FF"/>
<path d="M33.8978 53.4057L41.0981 67.3225C41.6824 68.4518 43.2868 68.4813 43.9123 67.3743L47.5633 60.912L43.8569 54.8469C43.3961 54.0929 43.6338 53.1081 44.3878 52.6473C45.1418 52.1865 46.1266 52.4243 46.5874 53.1783L50.3352 59.3111L57.9886 60.0915C59.2535 60.2205 60.1563 58.8938 59.572 57.7645L51.9525 43.0375C50.0741 46.6508 46.2836 49.1118 41.9234 49.0787L39.8533 49.0629C39.4166 49.0596 38.9974 49.235 38.6932 49.5484L37.2587 51.0259C36.2634 52.0511 35.1209 52.8444 33.8978 53.4057Z" fill="#3DB9FF"/>
<path d="M7.19571 44.2078L0.181822 57.7643C-0.402437 58.8936 0.500306 60.2203 1.7652 60.0913L9.30219 59.3228L13.0573 53.1781C13.5181 52.4241 14.5028 52.1864 15.2568 52.6472C16.0108 53.108 16.2486 54.0927 15.7878 54.8467L12.1381 60.819L15.8416 67.3742C16.467 68.4812 18.0714 68.4517 18.6557 67.3224L25.6333 53.8361C24.0015 53.2857 22.4718 52.3489 21.1871 51.0257L19.7527 49.5482C19.4484 49.2348 19.0293 49.0595 18.5926 49.0628L16.5224 49.0785C12.6513 49.1079 9.22928 47.1713 7.19571 44.2078Z" fill="#3DB9FF"/>
<path d="M28.4063 23.0671C31.2933 23.0671 33.6336 20.7268 33.6336 17.8398C33.6336 14.9529 31.2933 12.6125 28.4063 12.6125C25.5194 12.6125 23.179 14.9529 23.179 17.8398C23.179 20.7268 25.5194 23.0671 28.4063 23.0671ZM28.4063 23.0671C30.5103 23.0671 32.3496 23.861 33.658 25.1826C34.4202 25.9524 35.0023 26.9014 35.3515 27.9767M28.4063 23.0671C24.2245 23.0671 21.0881 26.2035 21.0881 30.3853V35.6125H31.5427M32.5881 31.2462L36.9691 34.5671L44.0881 25.158" stroke="white" stroke-width="2"/>
</svg>
