<svg xmlns="http://www.w3.org/2000/svg" fill="none" viewBox="11.33 7.6 61.2 62.8">
<path d="M32.5341 66.4002L14.1341 68.8002L11.3341 55.6002L25.3341 53.2002L32.5341 66.4002Z" fill="#3DB9FF"/>
<path d="M72.5342 65.2002L55.7342 67.2002L52.9342 54.0002L65.3342 52.0002L72.5342 65.2002Z" fill="#3DB9FF"/>
<path d="M32.9547 58.3049L32.134 58.4003L38.934 70.4003L52.134 69.6003L49.3603 56.5243C48.75 57.0766 48.1614 57.5911 47.6041 58.0654C43.3608 61.6763 37.2793 61.7562 32.9547 58.3049Z" fill="#3DB9FF"/>
<path fill-rule="evenodd" clip-rule="evenodd" d="M45.0118 55.0191C51.1597 49.7873 60.9341 39.7133 60.9341 28.5457C60.9341 22.9907 58.7427 17.6631 54.842 13.7351C50.9412 9.80703 45.6506 7.60028 40.1341 7.60028C34.6176 7.60028 29.3271 9.80703 25.4263 13.7351C21.5256 17.6631 19.3341 22.9907 19.3341 28.5457C19.3341 39.7133 29.1086 49.7873 35.2565 55.0191C38.1014 57.4401 42.1668 57.4401 45.0118 55.0191ZM49.7341 28.4003C49.7341 33.7022 45.4361 38.0003 40.1341 38.0003C34.8322 38.0003 30.5341 33.7022 30.5341 28.4003C30.5341 23.0983 34.8322 18.8003 40.1341 18.8003C45.4361 18.8003 49.7341 23.0983 49.7341 28.4003Z" fill="#3DB9FF"/>
</svg>