<svg width="64" height="64" viewBox="0 0 64 64" fill="none" xmlns="http://www.w3.org/2000/svg">
<circle cx="32" cy="31" r="23" fill="#3DB9FF"/>
<path d="M22.75 15.6087C25.6182 13.9496 28.9483 13 32.5 13C43.2695 13 52 21.7304 52 32.5C52 43.2695 43.2695 52 32.5 52C21.7304 52 13 43.2695 13 32.5C13 28.9483 13.9496 25.6182 15.6087 22.75" stroke="white" stroke-width="3" stroke-linecap="round"/>
<path d="M37.9234 46.2886C37.1972 48.0994 36.3348 49.5356 35.3859 50.5157C34.437 51.4955 33.42 52 32.3928 52C31.3657 52 30.3487 51.4955 29.3998 50.5157C28.4508 49.5356 27.5885 48.0994 26.8622 46.2886C26.136 44.4779 25.5598 42.3282 25.1668 39.9623C24.7737 37.5965 24.5714 35.0607 24.5714 32.5C24.5714 29.9393 24.7737 27.4035 25.1668 25.0377C25.5598 22.6718 26.136 20.5222 26.8622 18.7114C27.5885 16.9007 28.4508 15.4643 29.3998 14.4844C30.3487 13.5044 31.3657 13 32.3928 13C33.42 13 34.437 13.5044 35.3859 14.4843C36.3348 15.4643 37.1972 16.9007 37.9234 18.7114C38.6498 20.5222 39.2258 22.6718 39.6189 25.0377C40.0119 27.4035 40.2143 29.9393 40.2143 32.5C40.2143 35.0607 40.0119 37.5965 39.6189 39.9623" stroke="white" stroke-width="3" stroke-linecap="round"/>
<path d="M13 32.5H28.6M52 32.5H36.4" stroke="white" stroke-width="3" stroke-linecap="round"/>
<rect width="64" height="64" rx="20" fill="#3DB9FF"/>
<path d="M22.75 14.6087C25.6182 12.9496 28.9483 12 32.5 12C43.2695 12 52 20.7304 52 31.5C52 42.2695 43.2695 51 32.5 51C21.7304 51 13 42.2695 13 31.5C13 27.9483 13.9496 24.6182 15.6087 21.75" stroke="white" stroke-width="3" stroke-linecap="round"/>
<path d="M37.9234 45.2886C37.1972 47.0994 36.3348 48.5356 35.3859 49.5157C34.437 50.4955 33.42 51 32.3928 51C31.3657 51 30.3487 50.4955 29.3998 49.5157C28.4508 48.5356 27.5885 47.0994 26.8622 45.2886C26.136 43.4779 25.5598 41.3282 25.1668 38.9623C24.7737 36.5965 24.5714 34.0607 24.5714 31.5C24.5714 28.9393 24.7737 26.4035 25.1668 24.0377C25.5598 21.6718 26.136 19.5222 26.8622 17.7114C27.5885 15.9007 28.4508 14.4643 29.3998 13.4844C30.3487 12.5044 31.3657 12 32.3928 12C33.42 12 34.437 12.5044 35.3859 13.4843C36.3348 14.4643 37.1972 15.9007 37.9234 17.7114C38.6498 19.5222 39.2258 21.6718 39.6189 24.0377C40.0119 26.4035 40.2143 28.9393 40.2143 31.5C40.2143 34.0607 40.0119 36.5965 39.6189 38.9623" stroke="white" stroke-width="3" stroke-linecap="round"/>
<path d="M13 31.5H28.6M52 31.5H36.4" stroke="white" stroke-width="3" stroke-linecap="round"/>
</svg>
