<svg width="55" height="55" viewBox="0 0 55 55" fill="none" xmlns="http://www.w3.org/2000/svg">
<g id="Group 115663">
<path id="Vector" d="M50.7902 9.16667L35.75 24.0281V9.16667H31.794L17.4167 23.7493V0H0V55H55V9.16667H50.7902ZM51.3333 51.3333H3.66667V3.66667H13.75V28.4167H17.9641L32.0833 14.0958V28.4167H36.525L51.3333 13.7844V51.3333Z" fill="#3DB9FF"/>
<path id="Vector_2" d="M13.75 35.75V36.6667H17.4167V35.75V33H13.75V35.75Z" fill="#3DB9FF"/>
<path id="Vector_3" d="M17.4167 41.25H13.75V44.9167H17.4167V41.25Z" fill="#3DB9FF"/>
<path id="Vector_4" d="M22.9167 35.75V36.6667H26.5834V35.75V33H22.9167V35.75Z" fill="#3DB9FF"/>
<path id="Vector_5" d="M26.5834 41.25H22.9167V44.9167H26.5834V41.25Z" fill="#3DB9FF"/>
<path id="Vector_6" d="M32.0833 35.75V36.6667H35.7499V35.75V33H32.0833V35.75Z" fill="#3DB9FF"/>
<path id="Vector_7" d="M35.7499 41.25H32.0833V44.9167H35.7499V41.25Z" fill="#3DB9FF"/>
<path id="Vector_8" d="M44.9167 33H41.25V36.6667H44.9167V33Z" fill="#3DB9FF"/>
<path id="Vector_9" d="M44.9167 41.25H41.25V44.9167H44.9167V41.25Z" fill="#3DB9FF"/>
</g>
</svg>
