<svg width="48" height="48" viewBox="0 0 48 48" fill="none" xmlns="http://www.w3.org/2000/svg">
<g id="Group 115665">
<circle id="Ellipse 872" cx="24" cy="24" r="24" fill="#3DB9FF"/>
<g id="Group 115664">
<path id="Vector" d="M22.2806 37.0808L10.9155 25.7172C10.3291 25.1275 10 24.3297 10 23.4981C10 22.6665 10.3291 21.8687 10.9155 21.2789L22.2806 9.91543C22.8704 9.32911 23.6683 9 24.5 9C25.3317 9 26.1296 9.32911 26.7194 9.91543L38.0845 21.2789C38.6709 21.8687 39 22.6665 39 23.4981C39 24.3297 38.6709 25.1275 38.0845 25.7172L26.7194 37.0808C26.428 37.3722 26.082 37.6034 25.7012 37.7611C25.3203 37.9188 24.9122 38 24.5 38C24.0878 38 23.6797 37.9188 23.2988 37.7611C22.918 37.6034 22.572 37.3722 22.2806 37.0808Z" stroke="white" stroke-width="2" stroke-linecap="round" stroke-linejoin="round"/>
<path id="Vector_2" d="M25 38V24" stroke="white" stroke-width="2" stroke-linecap="round" stroke-linejoin="round"/>
<path id="Vector_3" d="M14 18L24 23" stroke="white" stroke-width="2" stroke-linecap="round" stroke-linejoin="round"/>
<path id="Vector_4" d="M35 18L25 23" stroke="white" stroke-width="2" stroke-linecap="round" stroke-linejoin="round"/>
</g>
</g>
</svg>
