<svg width="48" height="48" viewBox="0 0 48 48" fill="none" xmlns="http://www.w3.org/2000/svg">
<g id="Group 115666">
<circle id="Ellipse 872" cx="24" cy="24" r="24" fill="#3DB9FF"/>
<path id="Vector" d="M22.5 39C22.3091 38.9999 22.1215 38.9502 21.9554 38.8558L12.5607 33.5131C12.3905 33.4163 12.249 33.276 12.1505 33.1065C12.052 32.9369 12.0001 32.7441 12 32.5478V21.4519C12 21.2555 12.052 21.0627 12.1505 20.8932C12.249 20.7236 12.3905 20.5832 12.5607 20.4865L21.9554 15.1438C22.1216 15.0495 22.3092 15 22.5 15C22.6908 15 22.8784 15.0495 23.0446 15.1438L32.4393 20.4865C32.6095 20.5832 32.751 20.7236 32.8495 20.8932C32.948 21.0627 33 21.2555 33 21.4519V32.5478C33 32.7441 32.948 32.9369 32.8495 33.1065C32.751 33.2761 32.6095 33.4164 32.4393 33.5132L23.0446 38.8559C22.8785 38.9503 22.6909 38.9999 22.5 39ZM14.2105 31.9009L22.5 36.615L30.7895 31.9009V22.0988L22.5 17.3846L14.2105 22.0988V31.9009Z" fill="white"/>
<path id="Vector_2" d="M38 24H35.837V13.8771L27.7257 9.31019L19.0657 14.1857L18 12.3152L27.1928 7.13932C27.3554 7.04799 27.5389 7 27.7257 7C27.9124 7 28.096 7.04799 28.2585 7.13932L37.4514 12.3152C37.6179 12.4089 37.7564 12.5449 37.8528 12.7092C37.9492 12.8735 38 13.0603 38 13.2504V24Z" fill="white"/>
</g>
</svg>
