<svg width="48" height="59" viewBox="0 0 48 59" fill="none" xmlns="http://www.w3.org/2000/svg">
<g id="Group">
<g id="Group_2">
<path id="Vector" d="M47.5311 56.05L32.6797 30.3268C37.3884 27.3428 40.3353 22.098 40.3353 16.437C40.3354 7.3735 32.9618 0 23.8985 0C14.8352 0 7.46143 7.3735 7.46143 16.4369C7.46143 22.0988 10.4092 27.3444 15.1168 30.327L0.265851 56.05C-0.490778 57.3604 0.458292 59 1.96901 59C3.69039 59 44.4338 59 45.828 59C47.3407 59 48.2865 57.3586 47.5311 56.05ZM11.3947 16.4369C11.3947 9.54244 17.0038 3.93341 23.8982 3.93341C30.7927 3.93341 36.4017 9.54244 36.4017 16.4369C36.4017 23.2429 30.876 28.9404 23.8982 28.9404C16.9557 28.9404 11.3947 23.281 11.3947 16.4369ZM5.37534 55.0667L12.8811 42.066L18.5585 55.0667H5.37534ZM25.9608 44.337L27.5718 41.5467C28.3283 40.2365 27.3797 38.5967 25.8686 38.5967H21.9282C20.4149 38.5967 19.4698 40.2385 20.225 41.5467L21.836 44.337L20.7694 50.301L15.3249 37.8334L18.6777 32.0263C21.959 33.1333 25.6899 33.1787 29.1189 32.0263L32.4718 37.8336L27.0273 50.3013L25.9608 44.337ZM29.2382 55.0667L34.9156 42.066L42.4216 55.0667H29.2382Z" fill="#3DB9FF"/>
</g>
</g>
</svg>
