<svg width="58" height="63" viewBox="0 0 58 63" fill="none" xmlns="http://www.w3.org/2000/svg">
<path id="Vector" d="M57.0755 63H0.9242C0.413733 63 0 62.5826 0 62.0676V51.2472C0 47.061 2.48918 43.3517 6.34155 41.7971L19.6272 36.4358C19.8598 36.3419 20.1204 36.3472 20.3487 36.4507C20.5773 36.5542 20.7544 36.7466 20.8398 36.9843L24.7504 47.8921L26.0372 44.16L24.8998 41.3554C24.783 41.0679 24.8163 40.7403 24.9876 40.4827C25.1595 40.2247 25.4469 40.0699 25.755 40.0699H32.2447C32.5528 40.0699 32.8405 40.2247 33.0121 40.4827C33.1837 40.7406 33.2167 41.0679 33.0999 41.3554L31.9628 44.1604L33.2496 47.8924L37.1602 36.9847C37.2452 36.7469 37.4227 36.5545 37.6513 36.451C37.8796 36.3475 38.1402 36.3422 38.3728 36.4361L51.6581 41.7974C55.5108 43.352 58 47.0617 58 51.2475V62.0679C57.9997 62.5826 57.5863 63 57.0755 63ZM1.8484 61.1352H56.1516V51.2472C56.1516 47.8281 54.1184 44.7981 50.9718 43.5285L38.5736 38.5253L34.1017 50.9979C33.9687 51.369 33.6181 51.6105 33.2268 51.613C32.8353 51.6105 32.4884 51.3597 32.3596 50.9867L30.1027 44.4395C30.0288 44.225 30.0346 43.9904 30.1203 43.7803L30.8686 41.9344H27.1314L27.88 43.7799C27.9654 43.9904 27.9715 44.2247 27.8979 44.4395L25.6407 50.9867C25.5119 51.3597 25.1647 51.6105 24.7735 51.613C24.3708 51.6117 24.0317 51.369 23.8986 50.9979L19.4267 38.5253L7.02792 43.5285C3.88133 44.7981 1.8484 47.8278 1.8484 51.2472V61.1352ZM49.9813 58.9214H39.6374C39.1269 58.9214 38.7132 58.504 38.7132 57.989V51.5648C38.7132 51.0498 39.1269 50.6324 39.6374 50.6324H49.9813C50.4918 50.6324 50.9055 51.0498 50.9055 51.5648V57.989C50.9055 58.5037 50.4918 58.9214 49.9813 58.9214ZM40.5616 57.0566H49.0571V52.4972H40.5616V57.0566ZM28.9998 36.2164C27.5692 36.2164 26.1743 35.9485 24.8536 35.4198C23.833 35.0111 22.9895 34.497 22.3471 33.8919C20.573 32.2214 18.7286 28.6466 18.0487 27.2548C16.8941 27.1982 14.526 26.5773 13.5007 22.623C12.9918 20.6594 13.1079 19.0811 13.8457 17.9324C14.2484 17.3052 14.7552 16.936 15.1744 16.7216C15.167 16.2317 15.1781 15.5178 15.2558 14.6625C14.6061 13.6614 13.1849 10.6762 15.6248 6.30702C15.6254 6.30609 15.6258 6.30547 15.6264 6.30454C15.6264 6.30454 15.6291 6.29956 15.6298 6.29832C15.6301 6.2977 15.6424 6.27626 15.6433 6.27439C15.6455 6.27097 15.6476 6.26724 15.6495 6.26382C15.6519 6.25978 15.6541 6.25574 15.6562 6.2517C15.6569 6.25077 15.6575 6.24984 15.6581 6.24891C17.2551 3.43121 19.3213 2.83759 20.776 2.83665C20.7763 2.83665 20.7766 2.83665 20.7769 2.83665H20.7775C20.7782 2.83665 20.7791 2.83665 20.7791 2.83665H20.7797C21.1364 2.83665 21.4581 2.87333 21.7307 2.92337C22.3937 1.74793 24.2532 0 29.4416 0C29.441 0 29.4419 0 29.4416 0H29.4422C29.4453 0 29.4484 0 29.4515 0L29.6862 0.00124319C29.6884 0.00124319 29.6905 0.00124319 29.6927 0.00124319H29.6942C29.6973 0.00124319 29.7001 0.00124319 29.7025 0.00124319C33.1273 0.0394714 35.858 1.30597 37.5589 2.3745C40.7899 3.9692 42.7655 7.30096 43.2501 9.03024C43.462 9.78765 43.5683 10.6681 43.5652 11.6468C43.5652 11.6472 43.5652 11.6475 43.5652 11.6478C43.5652 11.6478 43.5652 11.6481 43.5652 11.6484C43.5652 11.6493 43.5652 11.6506 43.5652 11.6518C43.5652 11.6521 43.5652 11.6528 43.5652 11.6531C43.5652 11.6537 43.5652 11.6546 43.5652 11.6555C43.5652 11.6568 43.5652 11.6587 43.5652 11.6602C43.5652 11.6615 43.5652 11.663 43.5652 11.6642C43.5652 11.6658 43.5652 11.6677 43.5652 11.6692C43.5548 13.9095 42.9864 16.058 42.8262 16.6199C42.8259 16.6544 42.8256 16.688 42.825 16.7203C43.2442 16.9348 43.7513 17.304 44.1536 17.9312C44.8918 19.0802 45.0076 20.6581 44.4987 22.6217C43.4737 26.576 41.1056 27.1973 39.951 27.2539C39.2711 28.6456 37.4267 32.2204 35.6522 33.8913C35.0096 34.4964 34.1664 35.0105 33.1458 35.4189C31.8251 35.9485 30.4302 36.2164 28.9998 36.2164ZM18.6041 25.3676C18.9612 25.3676 19.3019 25.5718 19.4553 25.9041C19.4772 25.9519 21.6888 30.7211 23.6084 32.5287C24.0816 32.9744 24.7297 33.3639 25.535 33.6865C26.6379 34.1278 27.8033 34.3519 28.9995 34.3519C30.1958 34.3519 31.3612 34.1281 32.4641 33.6865C33.269 33.3642 33.9175 32.9747 34.391 32.5291C36.3106 30.7211 38.5222 25.9523 38.5441 25.9044C38.7246 25.5134 39.1485 25.2986 39.5662 25.3838C39.5659 25.3838 39.5659 25.3838 39.5659 25.3838C39.5684 25.3838 39.6439 25.395 39.7618 25.395C40.549 25.395 41.9784 24.9736 42.71 22.1512C43.0714 20.7573 43.0403 19.6592 42.6207 18.9761C42.2664 18.3996 41.7279 18.2808 41.7048 18.2762C41.2298 18.1963 40.9122 17.7649 40.9528 17.2807C40.9528 17.2788 40.9759 16.9916 40.9781 16.5139C40.9615 16.2532 40.8315 15.4659 40.4402 15.0911C39.967 14.7098 37.0878 14.1494 34.3035 13.6074C33.1332 13.3795 31.8069 13.1216 30.4089 12.8329C30.4074 12.8325 30.4056 12.8322 30.4037 12.8319C29.49 12.6644 28.7019 12.4375 28.0596 12.1581C25.7112 11.2832 24.0954 10.0285 23.1133 9.07126C22.7596 10.0605 22.1919 11.2879 21.3401 12.2159C19.829 13.8625 18.0009 14.7343 17.0737 15.0995C16.9751 16.3958 17.0444 17.2714 17.0453 17.2813C17.0854 17.7649 16.7508 18.2 16.2764 18.2796C16.2702 18.2815 15.7317 18.4002 15.3774 18.9767C14.9579 19.6598 14.9267 20.7579 15.2881 22.1518C16.0201 24.9745 17.4498 25.3956 18.2366 25.3956C18.366 25.3956 18.4446 25.3823 18.4452 25.3823C18.4988 25.372 18.5518 25.3676 18.6041 25.3676ZM22.6956 6.2458C23.0021 6.2458 23.2938 6.39995 23.467 6.66475C23.4808 6.68558 25.1031 9.07437 28.7229 10.4164C28.7405 10.4229 28.7571 10.4294 28.774 10.4369C29.2937 10.6657 29.9592 10.8549 30.7515 10.9995C30.7632 11.0016 30.7746 11.0038 30.7863 11.0063C32.168 11.2916 33.4887 11.5489 34.6544 11.7758C38.8567 12.5938 40.739 12.9802 41.5665 13.6126C41.6521 13.0004 41.7141 12.3306 41.7171 11.6611C41.7171 11.6599 41.7171 11.6583 41.7171 11.6568C41.7171 11.6559 41.7171 11.6546 41.7171 11.6537C41.7171 11.6528 41.7171 11.6515 41.7171 11.6506C41.7171 11.6506 41.7171 11.6503 41.7171 11.65C41.7171 11.6493 41.7171 11.6484 41.7171 11.6478C41.7171 11.6475 41.7171 11.6472 41.7171 11.6465C41.7171 11.6465 41.7171 11.6462 41.7171 11.6459C41.7171 11.645 41.7171 11.644 41.7171 11.6428C41.7171 11.6419 41.7171 11.6409 41.7171 11.64C41.7193 10.8894 41.6472 10.2237 41.504 9.65898C41.4935 9.61827 41.483 9.57817 41.4719 9.5387C41.4494 9.45821 41.4226 9.37398 41.3921 9.28633C40.8601 7.76218 39.1272 5.22451 36.7317 4.04317C36.6938 4.02577 36.6571 4.00588 36.6217 3.9835C35.1261 3.03681 32.7074 1.90084 29.6828 1.86727C29.6804 1.86727 29.6776 1.86727 29.6754 1.86727L29.4419 1.86479C29.2944 1.86479 29.1505 1.86634 29.01 1.86914C29.0082 1.86914 29.0069 1.86914 29.0051 1.86914C23.8142 1.9804 23.227 4.07332 23.1996 4.18676C23.1956 4.21038 23.1912 4.234 23.1857 4.25762C23.1537 4.39531 23.0924 4.51994 23.0095 4.6253C22.946 4.70579 22.8709 4.77386 22.7871 4.82825C22.6543 4.91465 22.4993 4.96748 22.3351 4.97619C22.2369 4.98178 22.1386 4.97121 22.0412 4.94417C21.996 4.93143 21.9519 4.91589 21.9097 4.89693C21.8453 4.87114 21.3961 4.70113 20.7791 4.70113C20.7785 4.70113 20.7782 4.70113 20.7775 4.70113C19.3685 4.70175 18.1818 5.54091 17.2505 7.19528C17.2499 7.19622 17.2493 7.19715 17.2486 7.19808C17.2486 7.19839 17.2483 7.19839 17.2483 7.1987C17.2471 7.20088 17.2459 7.20274 17.2446 7.20492C17.2428 7.20834 17.2409 7.21145 17.2391 7.21487C17.2385 7.21611 17.2379 7.21704 17.2372 7.21828C17.2366 7.21891 17.2363 7.21953 17.236 7.22015C15.5364 10.2622 16.1371 12.3586 16.5959 13.281C17.3999 12.9413 18.8222 12.2144 19.984 10.9485C21.0637 9.77211 21.6521 7.69909 21.7877 6.99948C21.8598 6.62777 22.1475 6.33717 22.5157 6.26382C22.576 6.25139 22.6361 6.2458 22.6956 6.2458Z" fill="#3DB9FF"/>
</svg>
