<svg width="61" height="61" viewBox="0 0 61 61" fill="none" xmlns="http://www.w3.org/2000/svg">
<path d="M10.6755 52.7225C9.94414 52.7121 9.24654 52.4129 8.73462 51.8901C5.93967 49.0833 3.72864 45.7498 2.22948 42.0822C0.730315 38.4147 -0.0272065 34.486 0.000746319 30.5236C0.000746319 22.4282 3.21405 14.6644 8.93377 8.94014C14.6535 3.21587 22.4111 0 30.5 0C38.5889 0 46.3465 3.21587 52.0662 8.94014C57.786 14.6644 60.9993 22.4282 60.9993 30.5236C61.0272 34.486 60.2697 38.4147 58.7705 42.0822C57.2714 45.7498 55.0603 49.0833 52.2654 51.8901C52.027 52.2081 51.7232 52.4712 51.3744 52.6615C51.0256 52.8518 50.64 52.9648 50.2438 52.993C49.8476 53.0212 49.4499 52.9638 49.0777 52.8248C48.7056 52.6858 48.3676 52.4684 48.0867 52.1873C47.8058 51.9061 47.5885 51.5679 47.4496 51.1954C47.3107 50.823 47.2534 50.425 47.2816 50.0284C47.3097 49.6319 47.4227 49.246 47.6128 48.8969C47.803 48.5479 48.0659 48.2438 48.3837 48.0052C51.8055 44.4861 54.1149 40.0355 55.0229 35.2099C55.9309 30.3843 55.3973 25.3979 53.4889 20.8742C51.5805 16.3505 48.3818 12.4902 44.293 9.77602C40.2041 7.06186 35.4065 5.61427 30.5 5.61427C25.5935 5.61427 20.7959 7.06186 16.707 9.77602C12.6182 12.4902 9.41955 16.3505 7.5111 20.8742C5.60266 25.3979 5.06909 30.3843 5.97712 35.2099C6.88515 40.0355 9.19448 44.4861 12.6163 48.0052C12.8853 48.2522 13.1 48.5523 13.2469 48.8867C13.3938 49.2211 13.4696 49.5824 13.4696 49.9476C13.4696 50.3129 13.3938 50.6742 13.2469 51.0086C13.1 51.3429 12.8853 51.6431 12.6163 51.8901C12.1044 52.4129 11.4068 52.7121 10.6755 52.7225Z" fill="#3DB9FF"/>
<path d="M28.6098 17.8459L17.8086 28.7031C17.3408 29.1898 17.0572 29.8292 17.0078 30.5083C16.9583 31.1873 17.1464 31.8623 17.5386 32.4138C17.7572 32.7451 18.0474 33.0209 18.3869 33.2202C18.7265 33.4195 19.1064 33.5369 19.4975 33.5634C19.8886 33.59 20.2805 33.5249 20.6431 33.3733C21.0056 33.2216 21.3292 32.9875 21.589 32.6887L27.7997 26.3667V58.2513C27.7997 58.9803 28.0842 59.6795 28.5906 60.1949C29.097 60.7104 29.7838 61 30.5 61C31.2162 61 31.903 60.7104 32.4094 60.1949C32.9158 59.6795 33.2003 58.9803 33.2003 58.2513V26.3667L39.411 32.6887C39.6708 32.9875 39.9944 33.2216 40.3569 33.3733C40.7195 33.5249 41.1114 33.59 41.5025 33.5634C41.8936 33.5369 42.2735 33.4195 42.6131 33.2202C42.9526 33.0209 43.2428 32.7451 43.4614 32.4138C43.8536 31.8623 44.0417 31.1873 43.9923 30.5083C43.9428 29.8292 43.6592 29.1898 43.1914 28.7031L32.3902 17.8459C32.1499 17.5793 31.8578 17.3664 31.5324 17.2208C31.207 17.0752 30.8554 17 30.5 17C30.1446 17 29.793 17.0752 29.4676 17.2208C29.1422 17.3664 28.8501 17.5793 28.6098 17.8459Z" fill="#3DB9FF"/>
</svg>
