<svg width="82" height="74" viewBox="0 0 82 74" fill="none" xmlns="http://www.w3.org/2000/svg">
<path id="Vector" fill-rule="evenodd" clip-rule="evenodd" d="M57.5125 3.14841C57.5122 2.57399 57.6666 2.01044 57.9589 1.51886C58.2513 1.02727 58.6705 0.626407 59.1711 0.359713C59.6717 0.0930179 60.2345 -0.0293288 60.7986 0.00593663C61.3628 0.041202 61.9066 0.232733 62.3713 0.559768L80.6671 13.4358C81.0784 13.7254 81.4145 14.112 81.6466 14.5625C81.8787 15.0129 82 15.5139 82 16.0224C82 16.5309 81.8787 17.0318 81.6466 17.4823C81.4145 17.9328 81.0784 18.3193 80.6671 18.6089L62.3713 31.485C61.9066 31.812 61.3628 32.0035 60.7986 32.0388C60.2345 32.0741 59.6717 31.9517 59.1711 31.685C58.6705 31.4183 58.2513 31.0175 57.9589 30.5259C57.6666 30.0343 57.5122 29.4708 57.5125 28.8963V20.2242H7.97505C6.8802 20.2242 5.8302 19.7822 5.05603 18.9954C4.28185 18.2085 3.84693 17.1414 3.84693 16.0287C3.84693 14.9159 4.28185 13.8488 5.05603 13.062C5.8302 12.2752 6.8802 11.8331 7.97505 11.8331H57.5125V3.14841ZM19.6287 42.515C20.0934 42.188 20.6372 41.9965 21.2014 41.9612C21.7655 41.9259 22.3283 42.0483 22.8289 42.315C23.3295 42.5817 23.7487 42.9825 24.0411 43.4741C24.3334 43.9657 24.4878 44.5292 24.4875 45.1037V53.7884H74.025C75.1198 53.7884 76.1698 54.2304 76.944 55.0172C77.7181 55.804 78.1531 56.8712 78.1531 57.9839C78.1531 59.0966 77.7181 60.1638 76.944 60.9506C76.1698 61.7374 75.1198 62.1794 74.025 62.1794H24.4875V70.8516C24.4878 71.426 24.3334 71.9896 24.0411 72.4811C23.7487 72.9727 23.3295 73.3736 22.8289 73.6403C22.3283 73.907 21.7655 74.0293 21.2014 73.9941C20.6372 73.9588 20.0934 73.7673 19.6287 73.4402L1.3329 60.5642C0.921627 60.2746 0.58553 59.888 0.353394 59.4375C0.121258 58.9871 0 58.4861 0 57.9776C0 57.4691 0.121258 56.9682 0.353394 56.5177C0.58553 56.0673 0.921627 55.6807 1.3329 55.3911L19.6287 42.515Z" fill="#3DB9FF"/>
</svg>
