<svg width="93" height="82" viewBox="0 0 93 82" fill="none" xmlns="http://www.w3.org/2000/svg">
<path id="Vector" d="M14.88 11.3682V1.86364C14.88 0.834909 14.0467 0 13.02 0C11.9933 0 11.16 0.834909 11.16 1.86364V11.3682C4.85832 12.2814 0 17.6598 0 24.2273C0 30.7947 4.85832 36.1732 11.16 37.0864V80.1364C11.16 81.1651 11.9933 82 13.02 82C14.0467 82 14.88 81.1651 14.88 80.1364V37.0864C21.1817 36.1732 26.04 30.7947 26.04 24.2273C26.04 17.6598 21.1817 12.2814 14.88 11.3682ZM13.02 33.5455C7.89384 33.5455 3.72 29.3635 3.72 24.2273C3.72 19.0874 7.89384 14.9091 13.02 14.9091C18.1462 14.9091 22.32 19.0874 22.32 24.2273C22.32 29.3635 18.1462 33.5455 13.02 33.5455ZM48.36 44.9136V1.86364C48.36 0.834909 47.5267 0 46.5 0C45.4733 0 44.64 0.834909 44.64 1.86364V44.9136C38.3383 45.8268 33.48 51.2053 33.48 57.7727C33.48 64.3402 38.3383 69.7186 44.64 70.6318V80.1364C44.64 81.1651 45.4733 82 46.5 82C47.5267 82 48.36 81.1651 48.36 80.1364V70.6318C54.6617 69.7186 59.52 64.3402 59.52 57.7727C59.52 51.2053 54.6617 45.8268 48.36 44.9136ZM46.5 67.0909C41.3738 67.0909 37.2 62.9089 37.2 57.7727C37.2 52.6328 41.3738 48.4545 46.5 48.4545C51.6262 48.4545 55.8 52.6328 55.8 57.7727C55.8 62.9089 51.6262 67.0909 46.5 67.0909ZM93 35.4091C93 28.8416 88.1417 23.4632 81.84 22.55V1.86364C81.84 0.834909 81.0067 0 79.98 0C78.9533 0 78.12 0.834909 78.12 1.86364V22.55C71.8183 23.4632 66.96 28.8416 66.96 35.4091C66.96 41.9765 71.8183 47.355 78.12 48.2682V80.1364C78.12 81.1651 78.9533 82 79.98 82C81.0067 82 81.84 81.1651 81.84 80.1364V48.2682C88.1417 47.355 93 41.9765 93 35.4091ZM79.98 44.7273C74.8538 44.7273 70.68 40.5453 70.68 35.4091C70.68 30.2692 74.8538 26.0909 79.98 26.0909C85.1062 26.0909 89.28 30.2692 89.28 35.4091C89.28 40.5453 85.1062 44.7273 79.98 44.7273Z" fill="#3DB9FF"/>
</svg>
