<svg xmlns="http://www.w3.org/2000/svg" fill="none" viewBox="17.24 11.72 57.93 56.03">
<path fill-rule="evenodd" clip-rule="evenodd" d="M45.9771 12.4426C45.9771 12.2521 45.9014 12.0694 45.7667 11.9347C45.6319 11.7999 45.4492 11.7242 45.2587 11.7242H25.1438C23.0479 11.7242 21.038 12.5568 19.556 14.0388C18.074 15.5207 17.2415 17.5307 17.2415 19.6265V59.8564C17.2415 61.9522 18.074 63.9622 19.556 65.4442C21.038 66.9262 23.0479 67.7587 25.1438 67.7587H53.8794C55.9752 67.7587 57.9852 66.9262 59.4672 65.4442C60.9491 63.9622 61.7817 61.9522 61.7817 59.8564V56.6926L60.8313 57.6404L53.1012 59.4207L52.8421 59.4469C52.5206 59.4793 52.197 59.4847 51.8748 59.4631C51.0911 59.4314 50.3216 59.2386 49.6145 58.8961C48.8482 58.525 48.1745 57.9873 47.6426 57.3224C47.1106 56.6575 46.734 55.8822 46.5401 55.0531C46.3462 54.224 46.34 53.3621 46.5218 52.5302L46.5273 52.5051L48.2558 45.0454L61.7793 31.4843C61.7654 31.3153 61.692 31.156 61.5713 31.0352C61.4365 30.9005 61.2538 30.8248 61.0633 30.8248H48.1323C47.5607 30.8248 47.0125 30.5978 46.6083 30.1936C46.2042 29.7894 45.9771 29.2412 45.9771 28.6696V12.4426ZM22.9601 35.1729C22.9601 34.0302 23.8864 33.1039 25.0291 33.1039H33.9946C35.1373 33.1039 36.0636 34.0302 36.0636 35.1729C36.0636 36.3156 35.1373 37.2419 33.9946 37.2419H25.0291C23.8864 37.2419 22.9601 36.3156 22.9601 35.1729ZM22.9601 45.5174C22.9601 44.3748 23.8864 43.4485 25.0291 43.4485H40.8911C42.0338 43.4485 42.9601 44.3748 42.9601 45.5174C42.9601 46.6601 42.0338 47.5864 40.8911 47.5864H25.0291C23.8864 47.5864 22.9601 46.6601 22.9601 45.5174ZM22.96 55.8627C22.96 54.7201 23.8863 53.7938 25.029 53.7938H40.891C42.0337 53.7938 42.96 54.7201 42.96 55.8627C42.96 57.0054 42.0337 57.9317 40.891 57.9317H25.029C23.8863 57.9317 22.96 57.0054 22.96 55.8627Z" fill="#3DB9FF"/>
<path d="M61.7817 50.8488V37.3419L52.0202 47.1306L50.5643 53.4142C50.514 53.6438 50.5158 53.8819 50.5693 54.1108C50.6228 54.3398 50.7268 54.5539 50.8737 54.7375C51.0206 54.9211 51.2067 55.0695 51.4183 55.172C51.6299 55.2745 51.8617 55.3284 52.0968 55.3299C52.2064 55.3409 52.3168 55.3409 52.4263 55.3299L58.7482 53.8739L61.7817 50.8488Z" fill="#3DB9FF"/>
<path d="M50.5278 14.1358C50.5278 13.6339 51.0317 13.3149 51.4051 13.6285C51.721 13.8958 52.0056 14.2067 52.2484 14.5612L60.1152 26.0074C60.2927 26.2692 60.0995 26.6074 59.7914 26.6074H51.1805C51.0074 26.6074 50.8414 26.5355 50.719 26.4077C50.5966 26.2798 50.5278 26.1064 50.5278 25.9256V14.1358Z" fill="#3DB9FF"/>
<path d="M52.0202 47.1306L50.5643 53.4142C50.514 53.6438 50.5158 53.8819 50.5693 54.1108C50.6228 54.3398 50.7268 54.5539 50.8737 54.7375C51.0206 54.9211 51.2067 55.0695 51.4183 55.172C51.6299 55.2745 51.8617 55.3284 52.0968 55.3299C52.2064 55.3409 52.3168 55.3409 52.4263 55.3299L58.7482 53.8739L69.8381 42.8141L63.0642 36.0555L52.0202 47.1306Z" fill="#3DB9FF"/>
<path d="M74.7022 35.7282L70.1811 31.2071C69.8838 30.9114 69.4816 30.7453 69.0623 30.7453C68.643 30.7453 68.2408 30.9114 67.9435 31.2071L65.4301 33.7205L72.1964 40.4868L74.7098 37.9734C74.8569 37.8255 74.9734 37.6502 75.0526 37.4573C75.1319 37.2643 75.1723 37.0577 75.1716 36.8492C75.1709 36.6406 75.129 36.4343 75.0485 36.2419C74.9679 36.0496 74.8503 35.875 74.7022 35.7282Z" fill="#3DB9FF"/>
</svg>