<svg width="59" height="60" viewBox="0 0 59 60" fill="none" xmlns="http://www.w3.org/2000/svg">
<ellipse cx="29.5" cy="30" rx="29.5" ry="30" fill="#3DB9FF"/>
<path d="M24.8333 15.6667L28.5 12M21.1667 35.8333L35.8333 21.1667M28.5 45L32.1667 41.3333M36.75 41.3333C39.2813 41.3333 41.3333 39.2813 41.3333 36.75C41.3333 34.2187 39.2813 32.1667 36.75 32.1667C34.2187 32.1667 32.1667 34.2187 32.1667 36.75C32.1667 39.2813 34.2187 41.3333 36.75 41.3333ZM20.25 24.8333C22.7813 24.8333 24.8333 22.7813 24.8333 20.25C24.8333 17.7187 22.7813 15.6667 20.25 15.6667C17.7187 15.6667 15.6667 17.7187 15.6667 20.25C15.6667 22.7813 17.7187 24.8333 20.25 24.8333ZM16.5833 45C19.1146 45 21.1667 42.948 21.1667 40.4167C21.1667 37.8854 19.1146 35.8333 16.5833 35.8333C14.052 35.8333 12 37.8854 12 40.4167C12 42.948 14.052 45 16.5833 45ZM40.4167 21.1667C42.948 21.1667 45 19.1146 45 16.5833C45 14.052 42.948 12 40.4167 12C37.8854 12 35.8333 14.052 35.8333 16.5833C35.8333 19.1146 37.8854 21.1667 40.4167 21.1667Z" stroke="white" stroke-width="4" stroke-linecap="round" stroke-linejoin="round"/>
</svg>
