<svg width="23" height="24" viewBox="0 0 23 24" fill="none" xmlns="http://www.w3.org/2000/svg">
<g id="Group 1">
<path id="Vector (Stroke)" fill-rule="evenodd" clip-rule="evenodd" d="M11.5 1.96845C8.27834 1.96845 5.66667 4.88086 5.66667 8.4735C5.66667 12.0661 8.27834 14.9785 11.5 14.9785C14.7217 14.9785 17.3333 12.0661 17.3333 8.4735C17.3333 4.88086 14.7217 1.96845 11.5 1.96845ZM4 8.4735C4 3.85439 7.35786 0.109863 11.5 0.109863C15.6421 0.109863 19 3.85439 19 8.4735C19 13.0926 15.6421 16.8371 11.5 16.8371C7.35786 16.8371 4 13.0926 4 8.4735Z" fill="white"/>
<path id="Vector (Stroke)_2" fill-rule="evenodd" clip-rule="evenodd" d="M11.5 16.6044C9.5004 16.6044 7.53604 17.1626 5.80438 18.223C4.07272 19.2833 2.6348 20.8084 1.63516 22.6449C1.39325 23.0894 0.857398 23.2417 0.438306 22.9851C0.0192135 22.7286 -0.12442 22.1603 0.117492 21.7159C1.27092 19.5969 2.93007 17.8371 4.92813 16.6137C6.9262 15.3902 9.19277 14.7461 11.5 14.7461C13.8072 14.7461 16.0738 15.3902 18.0719 16.6137C20.0699 17.8371 21.7291 19.5969 22.8825 21.7159C23.1244 22.1603 22.9808 22.7286 22.5617 22.9851C22.1426 23.2417 21.6068 23.0894 21.3648 22.6449C20.3652 20.8084 18.9273 19.2833 17.1956 18.223C15.464 17.1626 13.4996 16.6044 11.5 16.6044Z" fill="white"/>
</g>
</svg>
