<svg width="70" height="70" viewBox="0 0 70 70" fill="none" xmlns="http://www.w3.org/2000/svg">
<path d="M50.5556 3.88889V11.6667C50.5556 12.6981 50.1458 13.6872 49.4165 14.4165C48.6872 15.1458 47.6981 15.5556 46.6667 15.5556C45.6353 15.5556 44.6461 15.1458 43.9168 14.4165C43.1875 13.6872 42.7778 12.6981 42.7778 11.6667V7.77778H7.77778V42.7778H11.6667C12.6981 42.7778 13.6872 43.1875 14.4165 43.9168C15.1458 44.6461 15.5556 45.6353 15.5556 46.6667C15.5556 47.6981 15.1458 48.6872 14.4165 49.4165C13.6872 50.1458 12.6981 50.5556 11.6667 50.5556H3.88889C2.85749 50.5556 1.86834 50.1458 1.13903 49.4165C0.409721 48.6872 0 47.6981 0 46.6667V3.88889C0 2.85749 0.409721 1.86834 1.13903 1.13903C1.86834 0.409721 2.85749 0 3.88889 0H46.6667C47.6981 0 48.6872 0.409721 49.4165 1.13903C50.1458 1.86834 50.5556 2.85749 50.5556 3.88889ZM27.2222 62.2222V58.3333C27.2222 57.3019 26.8125 56.3128 26.0832 55.5835C25.3539 54.8542 24.3647 54.4444 23.3333 54.4444C22.3019 54.4444 21.3128 54.8542 20.5835 55.5835C19.8542 56.3128 19.4444 57.3019 19.4444 58.3333V66.1111C19.4444 67.1425 19.8542 68.1317 20.5835 68.861C21.3128 69.5903 22.3019 70 23.3333 70H66.1111C67.1425 70 68.1317 69.5903 68.861 68.861C69.5903 68.1317 70 67.1425 70 66.1111V23.3333C70 22.3019 69.5903 21.3128 68.861 20.5835C68.1317 19.8542 67.1425 19.4444 66.1111 19.4444H58.3333C57.3019 19.4444 56.3128 19.8542 55.5835 20.5835C54.8542 21.3128 54.4444 22.3019 54.4444 23.3333C54.4444 24.3647 54.8542 25.3539 55.5835 26.0832C56.3128 26.8125 57.3019 27.2222 58.3333 27.2222H62.2222V62.2222H27.2222ZM42.7778 46.6667C43.8092 46.6667 44.7983 46.2569 45.5276 45.5276C46.2569 44.7983 46.6667 43.8092 46.6667 42.7778V27.2222C46.6667 26.1908 46.2569 25.2017 45.5276 24.4724C44.7983 23.7431 43.8092 23.3333 42.7778 23.3333H27.2222C26.1908 23.3333 25.2017 23.7431 24.4724 24.4724C23.7431 25.2017 23.3333 26.1908 23.3333 27.2222V42.7778C23.3333 43.8092 23.7431 44.7983 24.4724 45.5276C25.2017 46.2569 26.1908 46.6667 27.2222 46.6667H42.7778Z" fill="#3DB9FF"/>
</svg>
