<svg width="74" height="74" viewBox="0 0 74 74" fill="none" xmlns="http://www.w3.org/2000/svg">
<path d="M57.9451 47.6484C57.9451 53.3112 55.6956 58.7421 51.6914 62.7463C47.6872 66.7505 42.2563 69 36.5935 69C30.9307 69 25.4999 66.7505 21.4957 62.7463C17.4915 58.7421 15.2419 53.3112 15.2419 47.6484C15.2419 29.3198 36.5935 8 36.5935 8C36.5935 8 57.9451 29.3198 57.9451 47.6484Z" stroke="#3DB9FF" stroke-width="10" stroke-miterlimit="10"/>
<path d="M36.5935 56.7809C34.1685 56.7809 31.8423 55.8198 30.1246 54.108C28.4069 52.3963 27.4376 50.0734 27.4292 47.6484" stroke="#3DB9FF" stroke-width="4" stroke-miterlimit="10"/>
<path d="M67.0776 47.6484H73.1872" stroke="#3DB9FF" stroke-width="6" stroke-miterlimit="10"/>
<path d="M61 68.9683H67.0777" stroke="#3DB9FF" stroke-width="6" stroke-miterlimit="10"/>
<path d="M61 26.2969H67.0777" stroke="#3DB9FF" stroke-width="6" stroke-miterlimit="10"/>
<path d="M0 47.6484H6.10955" stroke="#3DB9FF" stroke-width="6" stroke-miterlimit="10"/>
<path d="M6.10962 68.9683H12.1873" stroke="#3DB9FF" stroke-width="6" stroke-miterlimit="10"/>
<path d="M6.10962 26.2969H12.1873" stroke="#3DB9FF" stroke-width="6" stroke-miterlimit="10"/>
</svg>
