<svg width="100" height="100" viewBox="0 0 100 100" fill="none" xmlns="http://www.w3.org/2000/svg">
<path d="M40.6677 83.0001L17.6677 86.0001L14.1677 69.5001L31.6677 66.5001L40.6677 83.0001Z" fill="#3DB9FF"/>
<path d="M90.6678 81.5001L69.6678 84.0001L66.1678 67.5001L81.6678 65.0001L90.6678 81.5001Z" fill="#3DB9FF"/>
<path d="M41.1935 72.881L40.1676 73.0002L48.6676 88.0002L65.1676 87.0002L61.7005 70.6552C60.9376 71.3456 60.2019 71.9887 59.5052 72.5816C54.2011 77.0953 46.5993 77.1951 41.1935 72.881Z" fill="#3DB9FF"/>
<path fill-rule="evenodd" clip-rule="evenodd" d="M56.2648 68.7737C63.9497 62.234 76.1678 49.6416 76.1678 35.6821C76.1678 28.7382 73.4285 22.0788 68.5525 17.1687C63.6766 12.2587 57.0634 9.50024 50.1678 9.50024C43.2721 9.50024 36.6589 12.2587 31.783 17.1687C26.907 22.0788 24.1678 28.7382 24.1678 35.6821C24.1678 49.6416 36.3858 62.234 44.0707 68.7737C47.6269 71.8 52.7086 71.8 56.2648 68.7737ZM62.1678 35.5002C62.1678 42.1277 56.7952 47.5002 50.1678 47.5002C43.5403 47.5002 38.1678 42.1277 38.1678 35.5002C38.1678 28.8728 43.5403 23.5002 50.1678 23.5002C56.7952 23.5002 62.1678 28.8728 62.1678 35.5002Z" fill="#3DB9FF"/>
</svg>
