<svg width="76" height="46" viewBox="0 0 76 46" fill="none" xmlns="http://www.w3.org/2000/svg">
<path d="M7.6039 23C7.61682 23.0667 7.67088 23.3117 7.89211 23.7571C8.17996 24.3367 8.66464 25.0804 9.39023 25.9467C10.8408 27.6786 13.0492 29.6573 15.8931 31.5291C21.5874 35.2762 29.4274 38.3333 38 38.3333C46.5725 38.3333 54.4126 35.2762 60.107 31.5291C62.9509 29.6573 65.159 27.6785 66.6099 25.9467C67.3353 25.0803 67.8201 24.3367 68.1078 23.7571C68.3289 23.3117 68.3829 23.0668 68.3962 23C68.3829 22.9333 68.3289 22.6883 68.1078 22.2429C67.8201 21.6633 67.3353 20.9196 66.6099 20.0533C65.159 18.3214 62.9508 16.3427 60.107 14.471C54.4126 10.7236 46.5725 7.66664 38 7.66664C29.4275 7.66664 21.5875 10.7236 15.8931 14.471C13.0492 16.3426 10.8409 18.3214 9.39023 20.0533C8.66455 20.9197 8.17996 21.6633 7.89211 22.2429C7.67088 22.6883 7.61682 22.9332 7.6039 23ZM11.7407 8.04982C18.4243 3.65134 27.6844 0 38 0C48.3156 0 57.5757 3.65143 64.2591 8.04982C67.6042 10.2512 70.4045 12.7047 72.4151 15.1055C74.2684 17.3182 76 20.1353 76 23C76 25.8647 74.2684 28.6818 72.4151 30.8944C70.4045 33.2952 67.6042 35.7489 64.2591 37.95C57.5757 42.3488 48.3154 46 38 46C27.6846 46 18.4243 42.3488 11.7407 37.95C8.39558 35.7489 5.59554 33.2952 3.58486 30.8944C1.73156 28.6818 0 25.8647 0 23C0 20.1353 1.73164 17.3182 3.58486 15.1055C5.59554 12.7047 8.39567 10.2512 11.7407 8.04982Z" fill="#3DB9FF"/>
<path d="M49 22.5C49 28.8512 44.0751 34 38 34C31.9249 34 27 28.8512 27 22.5C27 16.1488 31.9249 11 38 11C44.0751 11 49 16.1488 49 22.5Z" fill="#3DB9FF"/>
</svg>
