<svg width="59" height="80" viewBox="0 0 59 80" fill="none" xmlns="http://www.w3.org/2000/svg">
<path d="M29.3407 39.8544C33.7574 39.8544 37.3378 34.5554 37.3378 28.0186C37.3378 21.4819 33.7574 16.1829 29.3407 16.1829C24.924 16.1829 21.3435 21.4819 21.3435 28.0186C21.3435 34.5554 24.924 39.8544 29.3407 39.8544Z" fill="#3DB9FF"/>
<path d="M48.9069 7.49253C44.8744 3.87619 39.9189 1.44747 34.5902 0.475738C29.2615 -0.495998 23.7678 0.0272263 18.7183 1.98738C13.6689 3.94754 9.26101 7.26801 5.98361 11.5806C2.70621 15.8931 0.687368 21.0292 0.150978 26.4191C-0.243864 30.2773 0.13766 34.1754 1.27306 37.8838C2.40846 41.5921 4.27476 45.0357 6.76195 48.0114H26.6748V44.466C23.3011 42.9934 20.4583 40.5244 18.5279 37.39C16.5975 34.2557 15.6717 30.606 15.8748 26.9305C16.0778 23.2549 17.4 19.7294 19.664 16.8268C21.928 13.9242 25.0254 11.7833 28.5408 10.6914C29.0614 10.5277 29.6197 10.5277 30.1403 10.6914C33.6557 11.7833 36.7532 13.9242 39.0171 16.8268C41.2811 19.7294 42.6033 23.2549 42.8063 26.9305C43.0094 30.606 42.0836 34.2557 40.1532 37.39C38.2228 40.5244 35.38 42.9934 32.0063 44.466V48.0114H51.9192C56.747 42.1759 59.1298 34.6986 58.5683 27.1457C58.0068 19.5928 54.5446 12.55 48.9069 7.49253Z" fill="#3DB9FF"/>
<path d="M48.0006 53.3428H10.6806C9.97362 53.3428 9.29558 53.6236 8.79566 54.1235C8.29574 54.6235 8.01489 55.3015 8.01489 56.0085V64.0056H50.6663V56.0085C50.6663 55.3015 50.3855 54.6235 49.8856 54.1235C49.3857 53.6236 48.7076 53.3428 48.0006 53.3428Z" fill="#3DB9FF"/>
<path d="M16.012 72.0029C16.012 74.1238 16.8545 76.158 18.3543 77.6577C19.854 79.1575 21.8881 80 24.0091 80H34.672C36.7929 80 38.8271 79.1575 40.3268 77.6577C41.8266 76.158 42.6691 74.1238 42.6691 72.0029V69.3372H16.012V72.0029Z" fill="#3DB9FF"/>
</svg>
