<svg width="58" height="63" viewBox="0 0 58 63" fill="none" xmlns="http://www.w3.org/2000/svg">
<path d="M28.6542 19.4089V31.736M53.3084 26.0809C53.3084 46.323 37.9979 55.3982 31.5073 58.336L31.499 58.3394C30.8164 58.6485 30.4743 58.8035 29.6986 58.9367C29.2074 59.0211 28.1041 59.0211 27.6129 58.9367C26.8341 58.8029 26.4883 58.6476 25.8005 58.336C19.3096 55.3982 4 46.323 4 26.0809V13.8623C4 10.4104 4 8.68313 4.6718 7.36468C5.2627 6.20492 6.20492 5.2627 7.36468 4.6718C8.68313 4 10.4104 4 13.8623 4H43.4474C46.8993 4 48.6229 4 49.9413 4.6718C51.1009 5.2627 52.0464 6.20492 52.6372 7.36468C53.3084 8.68184 53.3084 10.407 53.3084 13.8522V26.0809ZM28.8077 40.9813V41.2895L28.5007 41.2901V40.9813H28.8077Z" stroke="#3DB9FF" stroke-width="8" stroke-linecap="round" stroke-linejoin="round"/>
</svg>
