<svg width="36" height="36" viewBox="0 0 36 36" fill="none" xmlns="http://www.w3.org/2000/svg">
<g id="Social Media Icon Square/YouTube">
<rect id="Social Media Icon" width="36" height="36" rx="8" fill="white"/>
<path id="YouTube" d="M18.4386 24.9799L14.3764 24.904C13.0612 24.8775 11.7427 24.9304 10.4532 24.6563C8.49165 24.2468 8.35268 22.2389 8.20727 20.5546C8.00691 18.1868 8.08448 15.776 8.46258 13.4279C8.67604 12.1104 9.51607 11.3242 10.8152 11.2386C15.2005 10.9282 19.615 10.965 23.9906 11.1098C24.4528 11.1231 24.9181 11.1957 25.3737 11.2783C27.6231 11.6812 27.6779 13.9566 27.8237 15.8721C27.9691 17.8073 27.9077 19.7524 27.6298 21.6745C27.4068 23.2659 26.9802 24.6004 25.1798 24.7293C22.9241 24.8977 20.7201 25.0333 18.458 24.9902C18.4581 24.9799 18.4451 24.9799 18.4386 24.9799ZM16.0505 20.9509C17.7504 19.9535 19.4178 18.9727 21.108 17.982C19.4049 16.9846 17.7406 16.0038 16.0505 15.0131V20.9509Z" fill="#3DB9FF"/>
</g>
</svg>
